<?xml version="1.0" standalone="no"?>
<!DOCTYPE svg PUBLIC "-//W3C//DTD SVG 20010904//EN"
 "http://www.w3.org/TR/2001/REC-SVG-20010904/DTD/svg10.dtd">
<svg version="1.0" xmlns="http://www.w3.org/2000/svg"
 width="396.000000pt" height="630.000000pt" viewBox="0 0 396.000000 630.000000"
 preserveAspectRatio="xMidYMid meet">

<g transform="translate(0.000000,630.000000) scale(0.100000,-0.100000)"
fill="#000000" stroke="none">
<path d="M1397 6109 c-11 -6 -34 -11 -53 -11 -20 0 -31 -4 -28 -10 4 -6 -1 -8
-14 -4 -21 7 -36 -7 -37 -33 0 -10 -17 -14 -60 -16 -83 -2 -135 -14 -135 -31
0 -8 -4 -14 -10 -14 -5 0 -10 4 -10 10 0 5 -16 2 -35 -8 -24 -11 -38 -26 -42
-44 -3 -16 -12 -28 -19 -28 -8 0 -14 -3 -14 -7 0 -5 -13 -17 -30 -28 -16 -11
-35 -30 -41 -42 -7 -13 -17 -23 -23 -23 -6 0 -22 -20 -35 -45 -20 -37 -22 -50
-13 -69 10 -23 7 -36 -9 -36 -4 0 -10 8 -12 18 -3 10 -5 6 -6 -11 0 -15 -8
-38 -17 -52 -20 -31 -31 -130 -15 -149 17 -21 -3 -133 -29 -161 -11 -12 -20
-33 -20 -48 0 -14 -10 -35 -22 -47 -12 -11 -17 -20 -12 -20 6 0 11 -17 13 -37
1 -21 3 -48 4 -60 1 -13 5 -23 8 -23 4 0 6 -44 5 -97 -1 -83 3 -107 23 -155
20 -47 22 -60 12 -72 -7 -9 -15 -35 -17 -59 -4 -38 -1 -45 16 -50 17 -4 20
-10 13 -34 -12 -42 -6 -172 12 -265 9 -46 18 -101 20 -123 25 -291 71 -431
212 -643 108 -161 181 -252 242 -296 28 -21 51 -42 51 -48 0 -13 -31 -57 -96
-138 -29 -36 -71 -99 -94 -140 -57 -101 -91 -135 -182 -181 -42 -21 -115 -66
-163 -99 -48 -33 -119 -77 -158 -97 -93 -46 -215 -163 -252 -240 -76 -160 -99
-350 -89 -738 3 -132 1 -311 -4 -397 -8 -144 -11 -161 -35 -195 -65 -97 -168
-268 -173 -289 -4 -13 -10 -27 -15 -30 -5 -3 -9 -159 -9 -350 l0 -344 1980 0
1980 0 0 1148 0 1149 -39 34 c-21 19 -92 84 -157 146 -66 61 -148 135 -184
164 -35 28 -92 74 -127 103 -34 28 -76 61 -93 74 -16 13 -30 30 -30 38 0 40
-88 105 -313 233 -18 10 -40 41 -63 91 -23 48 -62 104 -108 156 -69 77 -74 85
-80 141 -7 61 -24 96 -54 112 -10 5 -53 14 -97 20 -50 7 -84 17 -92 27 -9 12
-13 3 -18 -51 -9 -84 -37 -129 -84 -133 -31 -3 -33 -2 -29 22 3 14 1 26 -4 26
-16 0 2 42 41 100 21 30 44 72 52 93 7 20 19 37 25 37 8 0 13 14 12 38 0 38 8
122 18 173 5 26 7 27 67 24 34 -2 50 -1 35 1 -39 7 -88 56 -88 88 0 33 7 33
41 0 25 -24 30 -25 63 -14 33 11 96 68 133 120 23 33 44 141 50 257 5 101 5
102 -21 118 -19 13 -37 16 -64 12 l-37 -6 28 17 c15 9 27 21 27 26 0 5 7 14
15 20 8 6 20 38 25 71 5 33 20 87 32 120 18 50 22 81 22 190 0 119 -2 134 -26
185 -18 39 -25 65 -21 88 4 24 1 36 -12 46 -12 8 -14 15 -7 20 13 8 -2 59 -24
77 -8 6 -14 25 -14 42 0 41 -30 106 -52 113 -10 3 -18 13 -18 23 0 10 -7 24
-15 31 -8 7 -15 20 -15 30 0 9 -11 30 -24 45 -13 15 -36 52 -50 81 -15 30 -35
58 -46 64 -11 6 -20 19 -20 30 0 10 -4 21 -9 24 -5 3 -12 18 -16 33 -3 15 -19
39 -35 53 -16 14 -33 37 -38 51 -6 13 -23 31 -38 39 -16 8 -31 17 -34 20 -38
40 -164 57 -190 25 -11 -13 -10 -15 6 -10 12 4 9 0 -6 -9 -14 -8 -29 -15 -35
-15 -5 -1 -3 3 5 9 11 7 9 11 -14 20 -16 6 -36 8 -45 5 -9 -2 -88 -7 -176 -11
-319 -12 -327 -12 -380 8 -56 20 -91 22 -118 7z m-145 -675 c14 -17 27 -24 41
-20 11 2 26 -1 33 -7 36 -33 46 -38 52 -32 3 3 2 9 -3 13 -6 4 -16 15 -23 24
-12 14 -10 16 9 11 17 -5 20 -3 15 8 -4 8 0 5 9 -6 13 -16 17 -17 24 -6 6 9
11 10 15 2 4 -6 18 -8 31 -5 12 3 26 1 29 -5 11 -17 26 -13 20 4 -10 26 23 17
55 -16 17 -17 35 -28 41 -24 5 3 10 2 10 -3 0 -18 99 -32 213 -30 113 3 120 2
137 -19 10 -13 25 -23 34 -23 9 0 25 -9 35 -19 30 -30 56 -41 100 -41 22 0 43
-5 46 -10 4 -6 13 -7 23 -1 52 26 168 -4 194 -52 6 -12 15 -69 19 -127 4 -58
16 -134 27 -170 11 -36 25 -83 31 -106 10 -38 14 -41 71 -58 33 -10 60 -22 60
-27 0 -11 -12 -11 -42 0 -13 4 -40 11 -60 15 -56 10 -47 -10 11 -28 27 -8 62
-21 79 -30 39 -20 46 -20 38 0 -3 8 -2 12 4 9 11 -7 13 -38 4 -48 -4 -4 -23 2
-43 13 -45 25 -147 60 -175 60 -36 1 -56 24 -56 64 0 37 -3 39 -51 50 -17 4
-29 14 -33 30 -5 22 -94 106 -112 106 -4 0 -16 8 -27 17 -29 27 -246 22 -337
-6 -36 -12 -72 -21 -81 -21 -9 0 -22 -7 -29 -15 -7 -9 -15 -13 -18 -11 -2 3
-17 -1 -33 -9 -15 -8 -36 -15 -46 -15 -10 0 -34 -8 -53 -19 -43 -23 -85 -14
-151 34 -25 18 -56 36 -69 40 -13 4 -30 13 -37 21 -25 25 -116 36 -199 24 -42
-5 -79 -8 -82 -6 -2 3 -26 -6 -53 -19 -58 -30 -62 -30 -54 -5 3 10 2 28 -4 38
-7 13 -7 31 0 57 8 29 8 40 -2 46 -10 6 -10 12 4 27 9 10 14 22 11 25 -8 8 32
49 64 66 12 6 22 16 22 20 0 5 22 33 50 62 45 50 58 69 74 109 21 53 41 70 85
70 24 0 39 -7 53 -26z m1013 -624 c7 -12 -2 -12 -30 0 -19 8 -19 9 2 9 12 1
25 -3 28 -9z m-170 -16 c32 -21 32 -34 0 -34 -28 0 -95 30 -95 42 0 14 70 8
95 -8z m-1241 -76 c-9 -62 -24 -71 -24 -16 0 40 5 50 28 57 1 1 -1 -18 -4 -41z
m716 -20 c0 -11 -117 -10 -124 0 -5 9 21 25 54 35 16 5 70 -22 70 -35z m47 20
c-3 -8 -6 -5 -6 6 -1 11 2 17 5 13 3 -3 4 -12 1 -19z m-437 -18 c0 -5 -7 -10
-16 -10 -8 0 -12 5 -9 10 3 6 10 10 16 10 5 0 9 -4 9 -10z m712 -35 c5 -26 -6
-32 -31 -16 -17 11 -7 41 13 41 7 0 16 -11 18 -25z m-811 -7 c10 -18 9 -20 -6
-15 -9 4 -19 7 -21 7 -2 0 -4 7 -4 15 0 22 18 18 31 -7z m179 12 c0 -5 -7 -10
-16 -10 -8 0 -12 5 -9 10 3 6 10 10 16 10 5 0 9 -4 9 -10z m817 -7 c2 -6 -4
-13 -13 -17 -21 -8 -26 -3 -18 18 7 18 25 17 31 -1z m239 2 c-3 -8 -1 -15 5
-15 6 0 7 -4 4 -10 -3 -6 1 -7 10 -4 16 7 121 -21 141 -38 36 -27 61 -247 35
-297 -6 -11 -11 -31 -11 -45 0 -14 -4 -27 -9 -30 -5 -3 -8 -26 -6 -51 1 -25
-1 -47 -5 -50 -4 -3 -11 -26 -15 -52 -9 -70 -42 -134 -63 -126 -23 9 -32 23
-32 56 0 16 -4 26 -10 22 -6 -4 -24 0 -40 9 -17 8 -30 10 -30 5 0 -5 -6 -9
-14 -9 -9 0 -12 -9 -9 -27 3 -24 2 -25 -6 -8 -10 20 -10 19 -17 -2 -3 -13 -10
-23 -16 -23 -5 0 -4 8 1 19 8 14 7 20 -4 25 -8 3 -15 16 -15 28 0 13 -8 30
-17 39 -10 8 -34 34 -53 57 -19 23 -39 42 -45 42 -6 0 -21 9 -33 20 -12 11
-24 20 -26 20 -3 0 -15 8 -26 17 -30 26 -158 93 -178 93 -14 0 -15 2 -3 9 12
8 9 11 -12 16 -35 9 -34 18 2 31 33 13 141 6 119 -7 -7 -5 -21 -6 -31 -3 -18
6 -47 -11 -47 -26 0 -9 107 -3 123 7 6 4 4 11 -7 19 -16 11 -14 13 11 18 15 3
51 8 78 11 70 9 136 27 161 45 23 17 49 90 58 164 3 28 12 53 19 58 17 11 20
10 13 -7z m-768 -11 c16 -5 34 -30 63 -87 34 -67 74 -129 129 -194 5 -7 10
-17 10 -22 0 -5 9 -12 20 -16 27 -9 46 -74 31 -104 -11 -20 -16 -21 -107 -15
-80 6 -97 4 -113 -10 -18 -16 -51 -13 -51 5 0 5 -11 9 -25 9 -14 0 -25 3 -25
8 0 4 -27 15 -59 25 -50 16 -63 17 -83 6 -34 -19 -70 -22 -79 -7 -17 26 -8 51
31 91 26 25 63 85 100 160 33 66 68 129 77 139 17 19 41 22 81 12z m708 -36
c-3 -13 -8 -44 -11 -69 -6 -47 -26 -74 -75 -100 -18 -10 -77 -13 -215 -14
-212 0 -232 5 -272 64 -20 29 -21 35 -8 48 8 8 15 21 15 29 0 11 9 8 33 -10
19 -15 38 -26 42 -26 4 0 23 -11 41 -25 18 -14 37 -25 42 -25 6 0 29 -9 53
-20 43 -19 139 -27 173 -14 10 4 16 18 16 40 0 32 -3 34 -46 45 l-47 12 24 18
c13 10 32 19 42 19 9 0 17 4 17 9 0 5 30 12 68 16 37 3 74 10 82 15 24 14 31
11 26 -12z m-1372 -55 c4 -9 3 -19 -1 -22 -4 -3 -9 -14 -11 -25 -3 -17 -2 -17
24 3 33 26 60 27 74 2 6 -12 33 -27 67 -37 47 -13 68 -15 113 -6 30 6 74 9 98
9 23 -1 42 1 42 6 0 4 9 7 19 7 11 0 22 6 24 13 3 6 6 2 6 -10 2 -47 -83 -78
-250 -90 -94 -6 -196 8 -234 33 -26 17 -50 83 -40 113 8 26 59 30 69 4z m1911
-207 c16 -64 17 -80 6 -117 -13 -44 -64 -104 -79 -95 -5 3 -14 -12 -21 -34
-14 -49 -28 -59 -37 -25 -5 19 -11 24 -24 20 -29 -9 -69 5 -75 26 -8 23 13
190 26 210 15 25 40 -13 41 -64 0 -32 -6 -53 -21 -73 -11 -15 -21 -38 -21 -51
0 -21 3 -23 23 -18 12 4 31 16 43 26 11 11 32 19 46 19 49 0 86 82 73 159 -7
40 -8 40 -102 67 -23 6 -14 20 20 29 17 6 32 15 33 20 0 6 5 19 9 30 8 17 11
15 25 -18 9 -20 25 -70 35 -111z m-1893 53 c45 -12 314 -7 373 7 l30 7 -42
-44 c-24 -23 -43 -51 -43 -61 0 -17 -13 -32 -70 -80 -8 -7 -18 -13 -21 -13 -4
0 -11 -3 -15 -7 -4 -5 -17 -8 -29 -8 -11 0 -26 -5 -31 -10 -14 -14 -137 -28
-164 -18 -12 4 -27 21 -33 38 -6 16 -18 30 -27 30 -26 0 -40 50 -40 143 l0 89
35 -31 c19 -16 54 -35 77 -42z m1009 -211 c32 -29 59 -58 59 -63 0 -15 -39
-37 -52 -29 -5 4 -14 0 -19 -7 -6 -10 -9 -11 -9 -1 0 6 -11 12 -25 12 -27 0
-76 19 -87 34 -3 5 4 23 16 40 13 17 26 39 29 49 10 27 24 21 88 -35z m745 5
c-11 -11 -17 4 -9 23 7 18 8 18 11 1 2 -10 1 -21 -2 -24z m-306 -240 c0 -30
-2 -34 -15 -23 -8 7 -15 28 -15 47 0 30 2 34 15 23 8 -7 15 -28 15 -47z m-807
20 c-7 -2 -19 -2 -25 0 -7 3 -2 5 12 5 14 0 19 -2 13 -5z m659 -28 c-6 -50
-22 -54 -22 -6 0 27 4 41 13 41 9 0 12 -11 9 -35z m-446 -34 c39 -1 62 -24 44
-46 -15 -18 -42 -19 -59 -2 -10 10 -14 8 -22 -6 -7 -12 -23 -18 -47 -18 -64
-2 -166 -6 -182 -8 -8 -1 3 -8 25 -16 30 -11 68 -13 148 -9 106 5 108 5 98
-15 -10 -18 -9 -19 21 -10 18 5 47 16 63 24 44 20 71 10 89 -36 20 -49 20 -59
1 -59 -8 0 -15 -7 -15 -15 0 -8 -7 -15 -15 -15 -9 0 -14 -8 -12 -22 1 -16 -5
-23 -23 -28 l-25 -6 22 -12 c14 -8 20 -18 16 -31 -3 -10 0 -22 6 -25 6 -4 11
-16 11 -27 0 -15 -7 -19 -39 -19 -21 0 -53 -3 -71 -7 -28 -5 -32 -4 -27 10 7
19 -1 20 -54 8 -25 -6 -41 -4 -53 5 -22 15 -17 50 7 48 18 -2 77 47 77 64 0 6
5 12 12 14 16 6 2 38 -17 38 -8 0 -15 -4 -15 -9 0 -4 -11 -6 -24 -4 -16 3 -23
10 -19 19 4 10 -4 14 -28 14 -31 0 -32 1 -13 15 18 15 15 15 -31 10 -105 -12
-139 -9 -202 24 -99 49 -97 63 10 70 35 2 7 18 -43 25 -35 5 -50 11 -50 22 0
24 38 31 158 32 63 0 116 2 117 4 2 2 32 3 67 1 35 -1 77 -2 94 -2z m579 -15
c12 -11 10 -13 -11 -13 -24 0 -30 7 -17 20 9 10 13 9 28 -7z m-478 -12 c-3 -3
-12 -4 -19 -1 -8 3 -5 6 6 6 11 1 17 -2 13 -5z m251 -211 c5 -10 7 -23 5 -30
-2 -6 1 -14 6 -18 22 -13 11 -27 -15 -21 -25 7 -25 6 -10 -16 21 -30 20 -38
-4 -38 -11 0 -20 -5 -20 -11 0 -6 -13 -1 -30 11 -30 21 -30 21 -30 1 0 -14 -5
-19 -15 -15 -8 4 -15 12 -15 20 0 8 -10 14 -22 13 -13 0 -17 -3 -10 -6 16 -6
6 -23 -14 -23 -8 0 -12 5 -9 10 3 6 0 10 -7 11 -11 0 42 26 95 45 9 3 17 12
17 19 0 8 -8 16 -17 19 -10 3 -1 3 20 0 29 -4 37 -2 37 11 0 8 5 15 11 15 5 0
7 5 4 10 -3 6 -2 10 4 10 6 0 14 -8 19 -17z m-378 -177 c0 -3 -4 -8 -10 -11
-5 -3 -10 -1 -10 4 0 6 5 11 10 11 6 0 10 -2 10 -4z"/>
<path d="M2420 4004 c0 -8 5 -12 10 -9 6 4 8 11 5 16 -9 14 -15 11 -15 -7z"/>
<path d="M2391 3984 c0 -11 3 -14 6 -6 3 7 2 16 -1 19 -3 4 -6 -2 -5 -13z"/>
<path d="M1700 3775 c-10 -12 -10 -15 3 -15 19 0 31 16 18 24 -5 3 -14 -1 -21
-9z"/>
<path d="M1865 3540 c3 -5 8 -10 11 -10 2 0 4 5 4 10 0 6 -5 10 -11 10 -5 0
-7 -4 -4 -10z"/>
</g>
</svg>
