<?xml version="1.0" encoding="UTF-8"?>
<svg version="1.1" xmlns="http://www.w3.org/2000/svg" width="370" height="370">
<path d="M0 0 C0.95277832 0.70636597 0.95277832 0.70636597 1.92480469 1.42700195 C5.81959484 4.39778886 9.29808794 7.60652667 12.6965332 11.1340332 C14.32654746 12.76404746 16.02853165 14.22918084 17.8125 15.6875 C21.75582286 19.01605092 25.02841561 22.78084854 28.3125 26.75 C28.96347656 27.53632812 29.61445313 28.32265625 30.28515625 29.1328125 C63.49483794 69.95704548 76.22117948 118.38891649 72.01513672 170.42919922 C68.36962923 203.4448384 54.70438073 233.95058046 35.0625 260.4375 C34.59158936 261.07268555 34.12067871 261.70787109 33.63549805 262.36230469 C30.66471114 266.25709484 27.45597333 269.73558794 23.9284668 273.1340332 C22.29845254 274.76404746 20.83331916 276.46603165 19.375 278.25 C16.04644908 282.19332286 12.28165146 285.46591561 8.3125 288.75 C7.52617187 289.40097656 6.73984375 290.05195313 5.9296875 290.72265625 C-34.89454548 323.93233794 -83.32641649 336.65867948 -135.36669922 332.45263672 C-168.3823384 328.80712923 -198.88808046 315.14188073 -225.375 295.5 C-226.01018555 295.02908936 -226.64537109 294.55817871 -227.29980469 294.07299805 C-231.19459484 291.10221114 -234.67308794 287.89347333 -238.0715332 284.3659668 C-239.70154746 282.73595254 -241.40353165 281.27081916 -243.1875 279.8125 C-247.13082286 276.48394908 -250.40341561 272.71915146 -253.6875 268.75 C-254.66396484 267.57050781 -254.66396484 267.57050781 -255.66015625 266.3671875 C-288.86983794 225.54295452 -301.59617948 177.11108351 -297.39013672 125.07080078 C-293.74462923 92.0551616 -280.07938073 61.54941954 -260.4375 35.0625 C-259.96658936 34.42731445 -259.49567871 33.79212891 -259.01049805 33.13769531 C-256.03971114 29.24290516 -252.83097333 25.76441206 -249.3034668 22.3659668 C-247.67345254 20.73595254 -246.20831916 19.03396835 -244.75 17.25 C-241.42144908 13.30667714 -237.65665146 10.03408439 -233.6875 6.75 C-232.90117187 6.09902344 -232.11484375 5.44804688 -231.3046875 4.77734375 C-164.03352132 -49.94637921 -69.52719385 -51.55921764 0 0 Z " fill="#030202" transform="translate(297.6875,37.25)"/>
<path d="M0 0 C1.3690448 -0.00855011 1.3690448 -0.00855011 2.76574707 -0.01727295 C4.7127974 -0.02675198 6.65986398 -0.03326837 8.60693359 -0.03710938 C11.52602445 -0.04665357 14.44436089 -0.0775774 17.36328125 -0.109375 C41.6017406 -0.2486512 65.04501277 3.71838661 83.34375 20.890625 C92.49806925 30.49539488 99.09375 42.78081705 99.09375 56.203125 C107.67375 56.203125 116.25375 56.203125 125.09375 56.203125 C125.42375 78.313125 125.75375 100.423125 126.09375 123.203125 C134.60467378 113.16794034 134.60467378 113.16794034 142.88671875 102.97265625 C145.66248295 99.48944065 148.47064901 96.03325297 151.28125 92.578125 C152.11003662 91.55912109 152.11003662 91.55912109 152.95556641 90.51953125 C154.0938258 89.1202092 155.23217323 87.72095877 156.37060547 86.32177734 C158.08274189 84.21665976 159.79356969 82.11048634 161.50390625 80.00390625 C179.68006442 57.61681058 179.68006442 57.61681058 181.09375 56.203125 C183.61469076 56.11464757 186.10805893 56.08785199 188.62890625 56.10546875 C189.75878212 56.10759117 189.75878212 56.10759117 190.91148376 56.10975647 C193.3264456 56.11537124 195.74131601 56.12792617 198.15625 56.140625 C199.78971221 56.1456381 201.42317586 56.15020134 203.05664062 56.15429688 C207.06904585 56.16534546 211.08138241 56.18261994 215.09375 56.203125 C214.27773329 60.00388742 212.88144426 61.97087116 210.34375 64.953125 C209.5290625 65.92378906 208.714375 66.89445312 207.875 67.89453125 C207.42769531 68.42449707 206.98039062 68.95446289 206.51953125 69.50048828 C203.92383404 72.600213 201.38798308 75.74864582 198.84375 78.890625 C197.72677647 80.26710074 196.60958617 81.64340061 195.4921875 83.01953125 C194.93112305 83.71062988 194.37005859 84.40172852 193.79199219 85.11376953 C192.1162694 87.17541927 190.43751854 89.23456356 188.7578125 91.29296875 C183.14645733 98.17472543 177.57797611 105.08117189 172.14306641 112.10351562 C169.81775177 115.0871973 167.43397954 117.98840905 164.9296875 120.82421875 C164.4135791 121.41243408 163.8974707 122.00064941 163.36572266 122.60668945 C162.373935 123.72845633 161.37142286 124.84085977 160.35693359 125.94213867 C158.84001381 127.6027044 158.84001381 127.6027044 157.09375 130.203125 C157.44439592 133.31313493 158.55812364 135.08198006 160.61328125 137.3828125 C161.39699097 138.27190308 161.39699097 138.27190308 162.1965332 139.17895508 C162.76073975 139.80568115 163.32494629 140.43240723 163.90625 141.078125 C165.08362391 142.41250409 166.26069978 143.74714619 167.4375 145.08203125 C168.04078125 145.76152832 168.6440625 146.44102539 169.265625 147.14111328 C172.16736666 150.41409806 175.04226856 153.7095933 177.90625 157.015625 C178.42743408 157.60778809 178.94861816 158.19995117 179.4855957 158.81005859 C183.09375 162.97543082 183.09375 162.97543082 183.09375 165.203125 C188.54402004 162.01272303 192.13811542 158.08903728 196.09375 153.203125 C197.25777344 151.79353516 197.25777344 151.79353516 198.4453125 150.35546875 C221.73221075 121.55768709 233.72831972 82.5972875 229.82275391 45.63867188 C229.09823556 40.12598632 228.12394286 34.66560306 227.09375 29.203125 C226.77470703 27.40488281 226.77470703 27.40488281 226.44921875 25.5703125 C226.01215245 23.11142149 225.56230821 20.65616505 225.09375 18.203125 C231.71875 15.203125 231.71875 15.203125 235.09375 15.203125 C235.91866326 18.63776386 236.7262921 22.07625943 237.53125 25.515625 C237.87639648 26.95131836 237.87639648 26.95131836 238.22851562 28.41601562 C247.21467831 67.09558543 238.19456897 108.15957273 218.2109375 141.90625 C211.96149422 151.63785541 204.50820271 160.1502761 196.5625 168.5234375 C194.02342896 171.13981252 194.02342896 171.13981252 192.09375 174.203125 C192.90457031 175.13511719 193.71539062 176.06710937 194.55078125 177.02734375 C201.79620904 185.36579858 208.98136068 193.75092687 216.09375 202.203125 C213.78557761 205.09997332 212.58113935 206.11698022 208.87670898 206.77172852 C204.75598224 206.83734772 200.65118657 206.86713184 196.53125 206.765625 C195.43635254 206.74654587 195.43635254 206.74654587 194.31933594 206.7270813 C180.55465327 206.37132834 180.55465327 206.37132834 175.53515625 202.2265625 C172.73723057 199.19459623 170.80099579 195.94553269 169.09375 192.203125 C164.95899041 192.92539946 161.46118625 194.97682895 157.78125 196.890625 C123.48988315 214.14244378 87.41997424 217.6164598 50.09375 209.203125 C49.28446045 209.03304932 48.4751709 208.86297363 47.64135742 208.68774414 C43.71073083 207.85363214 39.99451491 206.96290834 36.28125 205.390625 C35.46269531 205.04902344 34.64414063 204.70742188 33.80078125 204.35546875 C32.46080078 203.78505859 32.46080078 203.78505859 31.09375 203.203125 C28.88564369 202.28591161 26.67730867 201.36924863 24.46875 200.453125 C22.67678436 199.70383962 20.88500849 198.95409935 19.09375 198.203125 C19.114375 199.1725 19.135 200.141875 19.15625 201.140625 C19.09375 204.203125 19.09375 204.203125 18.09375 205.203125 C16.09410018 205.29070503 14.0913889 205.31009076 12.08984375 205.30078125 C10.87490234 205.29755859 9.65996094 205.29433594 8.40820312 205.29101562 C7.12880859 205.28263672 5.84941406 205.27425781 4.53125 205.265625 C3.24798828 205.26111328 1.96472656 205.25660156 0.64257812 205.25195312 C-2.54041022 205.24012045 -5.72330762 205.22363568 -8.90625 205.203125 C-8.86846436 204.47834961 -8.83067871 203.75357422 -8.79174805 203.00683594 C-7.55628797 188.33915099 -7.55628797 188.33915099 -12.515625 175.19140625 C-15.18014898 172.61694383 -18.1534424 170.4955677 -21.21679688 168.42138672 C-45.53912004 150.88260166 -58.91963489 114.24763099 -64.43359375 86.203125 C-64.58957031 85.213125 -64.74554688 84.223125 -64.90625 83.203125 C-65.08671875 82.08292969 -65.2671875 80.96273437 -65.453125 79.80859375 C-66.25566498 73.08064686 -66.19389771 66.28275056 -66.21875 59.515625 C-66.22203308 58.7861264 -66.22531616 58.05662781 -66.22869873 57.30502319 C-66.24975923 42.81162492 -64.77289284 28.94810275 -59.90625 15.203125 C-56.34101181 15.81430869 -53.24351069 16.82334999 -49.90625 18.203125 C-50.09960938 18.90695313 -50.29296875 19.61078125 -50.4921875 20.3359375 C-53.86944239 33.14275554 -55.27728338 45.65605455 -55.21875 58.890625 C-55.21456055 60.19700928 -55.21037109 61.50339355 -55.20605469 62.84936523 C-55.03130099 77.90885805 -53.07622887 92.00758981 -47.90625 106.203125 C-47.47441406 107.39164062 -47.04257812 108.58015625 -46.59765625 109.8046875 C-38.48653243 131.37347779 -26.14390512 148.96546988 -9.90625 165.203125 C-9.90625 139.133125 -9.90625 113.063125 -9.90625 86.203125 C-0.66625 86.203125 8.57375 86.203125 18.09375 86.203125 C18.09375 96.433125 18.09375 106.663125 18.09375 117.203125 C41.20707396 117.31977225 41.20707396 117.31977225 60.75390625 106.16015625 C62.77506559 103.20796724 62.96769174 100.85525409 62.609375 97.34375 C61.59051377 93.11393216 59.88330571 90.34726718 56.1875 87.984375 C50.96118792 85.25421197 46.50010325 84.09267654 40.59082031 83.99780273 C38.93956146 83.9678849 38.93956146 83.9678849 37.25494385 83.93736267 C36.07253113 83.92065018 34.89011841 83.90393768 33.671875 83.88671875 C32.45675232 83.86593765 31.24162964 83.84515656 29.98968506 83.82374573 C26.10776427 83.75835672 22.2257758 83.69941449 18.34375 83.640625 C15.71223258 83.59742968 13.08072201 83.55381506 10.44921875 83.50976562 C3.9974674 83.40268617 -2.45435129 83.30089986 -8.90625 83.203125 C-9.74897867 66.13665236 -10.06536013 49.10550781 -10.03662109 32.01904297 C-10.03113769 28.12333493 -10.03667051 24.22773636 -10.04296875 20.33203125 C-10.0423099 17.85156225 -10.04103277 15.37109331 -10.0390625 12.890625 C-10.04108673 11.72740723 -10.04311096 10.56418945 -10.04519653 9.36572266 C-10.04046829 7.7751001 -10.04046829 7.7751001 -10.03564453 6.15234375 C-10.03484894 5.21737061 -10.03405334 4.28239746 -10.03323364 3.3190918 C-9.72772778 -1.77164476 -3.92008418 0.01888701 0 0 Z " fill="#D17DB3" transform="translate(91.90625,120.796875)"/>
<path d="M0 0 C0.33 0 0.66 0 1 0 C1 30.36 1 60.72 1 92 C1.66 92 2.32 92 3 92 C3.22300781 91.45859375 3.44601563 90.9171875 3.67578125 90.359375 C5.42080694 87.25024369 7.75313457 84.8214668 10.1875 82.25 C11.18948716 81.17511738 12.19079005 80.09959648 13.19140625 79.0234375 C13.67625488 78.50362305 14.16110352 77.98380859 14.66064453 77.44824219 C16.91496517 75.01065013 19.08277485 72.50024527 21.2578125 69.9921875 C24.06369091 66.78367183 26.93022929 63.63005362 29.7890625 60.46875 C32.40335783 57.54960751 34.95718104 54.58187355 37.4921875 51.59375 C39 50 39 50 42 48 C47.79419043 54.74681361 53.51999549 61.54415218 59.0625 68.5 C59.52696533 69.07443848 59.99143066 69.64887695 60.4699707 70.24072266 C62.93061587 73.35683948 64.7522012 76.22135504 66 80 C43.11302312 94.16637636 19.75675088 100.16663145 -7.05004883 100.24023438 C-9.16723443 100.24990741 -11.28343236 100.28103203 -13.40039062 100.3125 C-32.07985307 100.45759188 -50.13454943 96.04352258 -67 88 C-69.97 86.68 -72.94 85.36 -76 84 C-76 70.14 -76 56.28 -76 42 C-71.730625 41.9175 -67.46125 41.835 -63.0625 41.75 C-45.49955415 41.22163831 -28.11835342 39.43387118 -14.73046875 26.84765625 C-7.77690935 19.42320118 -4.18485618 9.13814748 0 0 Z " fill="#010101" transform="translate(187,224)"/>
<path d="M0 0 C10.10152412 0 16.75341758 0.28735465 26 3 C26.886875 3.25523437 27.77375 3.51046875 28.6875 3.7734375 C37.80129643 6.87782441 45.31695317 13.58059072 50.0390625 21.953125 C52.38971203 26.96019962 54 31.44260913 54 37 C52.7625 36.566875 51.525 36.13375 50.25 35.6875 C38.55718461 31.86207274 27.96830445 30.49714278 15.75 30.3125 C14.21481628 30.27923931 12.67965884 30.24474197 11.14453125 30.20898438 C7.4296746 30.12282535 3.71565047 30.06192751 0 30 C0 20.1 0 10.2 0 0 Z " fill="#050203" transform="translate(110,147)"/>
<path d="M0 0 C5.78029643 5.58761988 5.78029643 5.58761988 6.4375 9.8125 C5.86710157 13.96825997 4.0437183 16.28382094 1 19 C-2.18171945 21.09858091 -4.20290077 21.9501813 -8 22.1875 C-12.49453479 20.40841331 -14.44591225 16.9760444 -17 13 C-13.50164156 9.29394681 -9.99149936 6.47800508 -5.6875 3.6875 C-4.08455078 2.64142578 -4.08455078 2.64142578 -2.44921875 1.57421875 C-1.64097656 1.05472656 -0.83273437 0.53523438 0 0 Z " fill="#090705" transform="translate(310,86)"/>
<path d="M0 0 C4.35593856 1.59910701 6.61873715 2.87858352 9 7 C9.21091804 12.69478698 7.13948648 15.59899025 3.47265625 19.6171875 C1.42216274 21.54258459 0.10927205 21.98221153 -2.6875 22.4375 C-7.38256937 21.8173965 -9.72310305 19.25750703 -13 16 C-11.3383196 11.87582937 -8.37661982 8.93445961 -5.375 5.75 C-4.859375 5.19570313 -4.34375 4.64140625 -3.8125 4.0703125 C-2.54574965 2.7097288 -1.27342185 1.35434163 0 0 Z " fill="#0A0805" transform="translate(282,58)"/>
<path d="M0 0 C3.26768689 0.8599176 4.49524943 1.80537414 6.375 4.625 C6.125 8.375 6.125 8.375 5.375 11.625 C7.293125 11.563125 7.293125 11.563125 9.25 11.5 C11.4296875 11.4296875 11.4296875 11.4296875 13.375 11.625 C14.035 12.285 14.695 12.945 15.375 13.625 C14.375 14.625 14.375 14.625 11.65234375 14.72265625 C9.99912109 14.70525391 9.99912109 14.70525391 8.3125 14.6875 C7.20777344 14.67847656 6.10304688 14.66945313 4.96484375 14.66015625 C4.11019531 14.64855469 3.25554688 14.63695313 2.375 14.625 C3.74483503 17.78615776 4.3640638 18.6177092 7.375 20.625 C7.045 21.615 6.715 22.605 6.375 23.625 C0.78136594 19.56366463 -4.48463514 15.2458599 -9.625 10.625 C-8.66874968 5.3883911 -5.2607688 1.252564 0 0 Z " fill="#DF4785" transform="translate(60.625,74.375)"/>
<path d="M0 0 C1.27450447 0.59638333 2.54446877 1.20247416 3.8125 1.8125 C4.52019531 2.14894531 5.22789062 2.48539063 5.95703125 2.83203125 C8.04581918 4.0261949 9.46557667 5.15204126 11 7 C11.42822025 9.85480169 11.40659584 11.34492892 9.875 13.8125 C7.22464043 15.49106106 5.06753576 15.20450238 2 15 C2.33 18.63 2.66 22.26 3 26 C2.01 25.67 1.02 25.34 0 25 C-0.33 21.37 -0.66 17.74 -1 14 C-1.99 14 -2.98 14 -4 14 C-5.36176581 15.98075027 -6.69593116 17.98079663 -8 20 C-8.66 20 -9.32 20 -10 20 C-8.56347895 15.08558588 -6.45840385 10.99761642 -3.875 6.625 C-3.50246094 5.98433594 -3.12992188 5.34367187 -2.74609375 4.68359375 C-1.83565998 3.11951523 -0.91851809 1.55934466 0 0 Z " fill="#D6936D" transform="translate(249,36)"/>
<path d="M0 0 C2.65342246 0.27930763 4.58011629 0.74806977 6.875 2.125 C8.71218869 5.18698114 7.75650129 7.62484038 7 11 C5.9375 13.9375 5.9375 13.9375 5 16 C5.99 16.61875 6.98 17.2375 8 17.875 C8.99 18.57625 9.98 19.2775 11 20 C11 20.66 11 21.32 11 22 C6.44435939 20.41467191 2.68524231 18.00996919 -1.3125 15.375 C-1.95767578 14.95476562 -2.60285156 14.53453125 -3.26757812 14.1015625 C-4.84760724 13.07161759 -6.42416047 12.03634372 -8 11 C-6.412273 6.59867306 -4.45210931 4.18656244 -1 1 C-0.67 0.67 -0.34 0.34 0 0 Z " fill="#E6438F" transform="translate(47,90)"/>
<path d="M0 0 C0 7.59 0 15.18 0 23 C-0.99 23 -1.98 23 -3 23 C-3.33 20.69 -3.66 18.38 -4 16 C-6.31 15.34 -8.62 14.68 -11 14 C-11.680625 14.99 -11.680625 14.99 -12.375 16 C-12.91125 16.66 -13.4475 17.32 -14 18 C-14.66 18 -15.32 18 -16 18 C-15.08753711 13.1609007 -12.27750808 10.38239807 -9.125 6.75 C-8.31095703 5.77546875 -8.31095703 5.77546875 -7.48046875 4.78125 C-6.95324219 4.16765625 -6.42601562 3.5540625 -5.8828125 2.921875 C-5.16182373 2.08027832 -5.16182373 2.08027832 -4.42626953 1.22167969 C-3 0 -3 0 0 0 Z " fill="#E29671" transform="translate(238,31)"/>
<path d="M0 0 C0.93367786 2.50631829 1.16909539 3.60257286 0.10375977 6.10644531 C-0.59535522 7.20617676 -0.59535522 7.20617676 -1.30859375 8.328125 C-2.05786133 9.52695313 -2.05786133 9.52695313 -2.82226562 10.75 C-3.35529297 11.575 -3.88832031 12.4 -4.4375 13.25 C-4.96666016 14.09046875 -5.49582031 14.9309375 -6.04101562 15.796875 C-7.34969929 17.87190496 -8.66953077 19.93889699 -10 22 C-10.66 21.67 -11.32 21.34 -12 21 C-11.38125 19.4221875 -11.38125 19.4221875 -10.75 17.8125 C-9.61314269 14.04000127 -9.61314269 14.04000127 -11.4375 11 C-13.95222198 8.58792079 -13.95222198 8.58792079 -17.75 9.1875 C-19.35875 9.5896875 -19.35875 9.5896875 -21 10 C-21 9.34 -21 8.68 -21 8 C-17.87745057 6.66087415 -14.75157642 5.32969342 -11.625 4 C-10.73554688 3.6184375 -9.84609375 3.236875 -8.9296875 2.84375 C-8.07890625 2.4828125 -7.228125 2.121875 -6.3515625 1.75 C-5.56604004 1.41484375 -4.78051758 1.0796875 -3.97119141 0.734375 C-2 0 -2 0 0 0 Z " fill="#E3B27F" transform="translate(302,75)"/>
<path d="M0 0 C4.49324849 1.65770333 8.61186146 3.84982162 12.8125 6.125 C13.50537109 6.49753906 14.19824219 6.87007813 14.91210938 7.25390625 C16.60934836 8.16690377 18.30485138 9.08312716 20 10 C20 10.66 20 11.32 20 12 C18.7625 11.7525 17.525 11.505 16.25 11.25 C13.0858041 10.86782359 12.28794691 10.83144571 9.4375 12.5 C7.44375134 15.96738897 8.12211661 18.19583865 9 22 C8.34 22 7.68 22 7 22 C5.62683502 19.09191094 4.27991866 16.17239387 2.9375 13.25 C2.54755859 12.425 2.15761719 11.6 1.75585938 10.75 C1.39169922 9.95078125 1.02753906 9.1515625 0.65234375 8.328125 C0.31195068 7.5949707 -0.02844238 6.86181641 -0.37915039 6.10644531 C-1.09847116 3.66590281 -0.82742385 2.37210464 0 0 Z " fill="#E55183" transform="translate(69,63)"/>
<path d="M0 0 C0.99 0 1.98 0 3 0 C3.66 3.3 4.32 6.6 5 10 C5.763125 8.68 6.52625 7.36 7.3125 6 C8.61328125 3.75 8.61328125 3.75 10 2 C10.99 2 11.98 2 13 2 C12.34034961 8.86036401 10.7637236 15.34443923 9 22 C8.01 22 7.02 22 6 22 C6.99 17.71 7.98 13.42 9 9 C7.35 11.31 5.7 13.62 4 16 C3.34 15.67 2.68 15.34 2 15 C2 12.69 2 10.38 2 8 C1.34 8 0.68 8 0 8 C-0.185625 9.8253125 -0.185625 9.8253125 -0.375 11.6875 C-0.78891306 15.06479059 -1.54573451 17.89756695 -3 21 C-3.66 21 -4.32 21 -5 21 C-3.29787234 3.29787234 -3.29787234 3.29787234 0 0 Z " fill="#D68367" transform="translate(211,24)"/>
<path d="M0 0 C0.99 0 1.98 0 3 0 C3.67189656 2.91555115 4.33769308 5.83226951 5 8.75 C5.19078125 9.575 5.3815625 10.4 5.578125 11.25 C5.84882813 12.44882812 5.84882813 12.44882812 6.125 13.671875 C6.29257813 14.4050293 6.46015625 15.13818359 6.6328125 15.89355469 C7 18 7 18 7 22 C6.01 22 5.02 22 4 22 C1.80859375 19.6640625 1.80859375 19.6640625 -0.5625 16.625 C-3.63191205 12.67969922 -3.63191205 12.67969922 -7 9 C-6.7834375 9.74765625 -6.566875 10.4953125 -6.34375 11.265625 C-6.0653125 12.25046875 -5.786875 13.2353125 -5.5 14.25 C-5.2215625 15.22453125 -4.943125 16.1990625 -4.65625 17.203125 C-4 20 -4 20 -4 24 C-4.66 24 -5.32 24 -6 24 C-6.83806616 21.06377536 -7.67062444 18.12617933 -8.5 15.1875 C-8.73847656 14.35412109 -8.97695312 13.52074219 -9.22265625 12.66210938 C-9.56103516 11.45844727 -9.56103516 11.45844727 -9.90625 10.23046875 C-10.11572266 9.49207764 -10.32519531 8.75368652 -10.54101562 7.99291992 C-11 6 -11 6 -11 3 C-9.68 3 -8.36 3 -7 3 C-5.05142247 5.14934007 -3.42523885 7.15888984 -1.75 9.5 C-0.1825 11.645 1.385 13.79 3 16 C2.01 10.72 1.02 5.44 0 0 Z " fill="#E16C70" transform="translate(143,24)"/>
<path d="M0 0 C5.78029643 5.58761988 5.78029643 5.58761988 6.4375 9.8125 C5.86710157 13.96825997 4.0437183 16.28382094 1 19 C-2.18171945 21.09858091 -4.20290077 21.9501813 -8 22.1875 C-12.49453479 20.40841331 -14.44591225 16.9760444 -17 13 C-13.50164156 9.29394681 -9.99149936 6.47800508 -5.6875 3.6875 C-4.08455078 2.64142578 -4.08455078 2.64142578 -2.44921875 1.57421875 C-1.64097656 1.05472656 -0.83273437 0.53523438 0 0 Z M-8.1875 8 C-9.81751953 9.11375 -9.81751953 9.11375 -11.48046875 10.25 C-12.72763672 11.11625 -12.72763672 11.11625 -14 12 C-12.92598892 14.91517292 -12.22189824 16.77810176 -10 19 C-6.05227778 19.53832576 -4.26336034 19.14687404 -0.75 17.1875 C2.14542239 15.11320337 2.14542239 15.11320337 4 12 C3.65554402 7.49149818 3.65554402 7.49149818 1 4 C-3.08481881 4 -4.84704653 5.70119331 -8.1875 8 Z " fill="#E3B983" transform="translate(310,86)"/>
<path d="M0 0 C4.35593856 1.59910701 6.61873715 2.87858352 9 7 C9.21091804 12.69478698 7.13948648 15.59899025 3.47265625 19.6171875 C1.42216274 21.54258459 0.10927205 21.98221153 -2.6875 22.4375 C-7.38256937 21.8173965 -9.72310305 19.25750703 -13 16 C-11.3383196 11.87582937 -8.37661982 8.93445961 -5.375 5.75 C-4.859375 5.19570313 -4.34375 4.64140625 -3.8125 4.0703125 C-2.54574965 2.7097288 -1.27342185 1.35434163 0 0 Z M1 2 C-2.63 5.96 -6.26 9.92 -10 14 C-8.31622777 17.89459074 -8.31622777 17.89459074 -6 20 C-1.42422502 20 0.49397926 19.45218874 3.9375 16.375 C6.34505672 12.43536173 6.83899995 10.53059972 6 6 C4.35 4.68 2.7 3.36 1 2 Z " fill="#E2AB77" transform="translate(282,58)"/>
<path d="M0 0 C0 0.66 0 1.32 0 2 C-1.28913487 2.67154933 -2.58140204 3.33708859 -3.875 4 C-4.59429687 4.37125 -5.31359375 4.7425 -6.0546875 5.125 C-8 6 -8 6 -10 6 C-9.505 6.78375 -9.01 7.5675 -8.5 8.375 C-7 11 -7 11 -7 13 C-5.6078125 12.2575 -5.6078125 12.2575 -4.1875 11.5 C-1 10 -1 10 2 10 C2 10.66 2 11.32 2 12 C0.02 12.99 -1.96 13.98 -4 15 C-3.34 16.98 -2.68 18.96 -2 21 C1.72433382 19.7874262 5.37802806 18.49140021 9 17 C8 20 8 20 5.49609375 21.38671875 C1.24804688 23.19335938 1.24804688 23.19335938 -3 25 C-6.3 19.06 -9.6 13.12 -13 7 C-9.31013097 3.31013097 -5.44167695 0 0 0 Z " fill="#DB5674" transform="translate(108,38)"/>
<path d="M0 0 C0 0.66 0 1.32 0 2 C-6.625 5 -6.625 5 -10 5 C-9.505 6.1446875 -9.505 6.1446875 -9 7.3125 C-8 10 -8 10 -8 13 C-5.03 12.01 -2.06 11.02 1 10 C1 10.66 1 11.32 1 12 C-1.31 12.66 -3.62 13.32 -6 14 C-5.34 16.64 -4.68 19.28 -4 22 C1.445 20.02 1.445 20.02 7 18 C7 18.99 7 19.98 7 21 C5.58603098 21.50757862 4.16868271 22.00574925 2.75 22.5 C1.96109375 22.7784375 1.1721875 23.056875 0.359375 23.34375 C-2 24 -2 24 -6 24 C-7.17314026 21.23174812 -8.33870215 18.46071514 -9.5 15.6875 C-10.00080078 14.50897461 -10.00080078 14.50897461 -10.51171875 13.30664062 C-10.82753906 12.54931641 -11.14335938 11.79199219 -11.46875 11.01171875 C-11.76201172 10.31522217 -12.05527344 9.61872559 -12.35742188 8.90112305 C-13 7 -13 7 -13 4 C-11.2097939 3.32942113 -9.41778511 2.6636531 -7.625 2 C-6.62726563 1.62875 -5.62953125 1.2575 -4.6015625 0.875 C-2 0 -2 0 0 0 Z " fill="#E46478" transform="translate(126,30)"/>
<path d="M0 0 C0.66 0 1.32 0 2 0 C2.33 2.97 2.66 5.94 3 9 C3.54269531 8.3503125 4.08539063 7.700625 4.64453125 7.03125 C5.71767578 5.77828125 5.71767578 5.77828125 6.8125 4.5 C7.52019531 3.6646875 8.22789062 2.829375 8.95703125 1.96875 C11 0 11 0 14 0 C14 0.66 14 1.32 14 2 C13.34 2 12.68 2 12 2 C11.731875 2.598125 11.46375 3.19625 11.1875 3.8125 C10.01506533 5.97224808 8.80630718 7.35790256 7 9 C8.55701931 13.67105792 11.08447373 17.08705685 14 21 C13.01 21.33 12.02 21.66 11 22 C10.59007812 21.3503125 10.18015625 20.700625 9.7578125 20.03125 C9.21898437 19.1959375 8.68015625 18.360625 8.125 17.5 C7.59132812 16.6646875 7.05765625 15.829375 6.5078125 14.96875 C5.76144531 13.99421875 5.76144531 13.99421875 5 13 C4.34 13 3.68 13 3 13 C2.67 15.97 2.34 18.94 2 22 C1.34 22 0.68 22 0 22 C0 14.74 0 7.48 0 0 Z " fill="#ED8074" transform="translate(171,20)"/>
<path d="M0 0 C0.66 0 1.32 0 2 0 C2 6.27 2 12.54 2 19 C3.98 19 5.96 19 8 19 C10.14468649 16.85531351 9.7395788 12.41555106 10.0625 9.4375 C10.15337891 8.63119141 10.24425781 7.82488281 10.33789062 6.99414062 C10.56247449 4.99652623 10.78173236 2.9983144 11 1 C11.99 1 12.98 1 14 1 C14.44937779 7.59087429 13.06969278 13.74345165 11 20 C9 22 9 22 7.125 22.265625 C6.42375 22.26046875 5.7225 22.2553125 5 22.25 C3.948125 22.25773437 3.948125 22.25773437 2.875 22.265625 C1 22 1 22 -1 20 C-1.55017167 13.33266539 -1.22325484 6.57499476 0 0 Z " fill="#E3826E" transform="translate(191,21)"/>
<path d="M0 0 C0.66 0 1.32 0 2 0 C3.0070436 3.1019264 4.00440805 6.20688098 5 9.3125 C5.28617188 10.19357422 5.57234375 11.07464844 5.8671875 11.98242188 C6.13789062 12.82998047 6.40859375 13.67753906 6.6875 14.55078125 C6.93886719 15.33106689 7.19023438 16.11135254 7.44921875 16.9152832 C8 19 8 19 8 22 C7.01 22.33 6.02 22.66 5 23 C3.20654297 22.05957031 3.20654297 22.05957031 1.2421875 20.578125 C0.53449219 20.04703125 -0.17320313 19.5159375 -0.90234375 18.96875 C-1.63582031 18.4015625 -2.36929688 17.834375 -3.125 17.25 C-3.86621094 16.69828125 -4.60742188 16.1465625 -5.37109375 15.578125 C-10.86725765 11.39822704 -10.86725765 11.39822704 -12 8 C-7.6426774 9.47130373 -4.28065866 11.83080615 -0.6875 14.625 C-0.13771484 15.04523437 0.41207031 15.46546875 0.97851562 15.8984375 C2.32292168 16.92720039 3.66201413 17.9629009 5 19 C4.6390625 17.96359375 4.278125 16.9271875 3.90625 15.859375 C3.4371807 14.48969264 2.96844834 13.11989486 2.5 11.75 C2.26152344 11.06808594 2.02304688 10.38617188 1.77734375 9.68359375 C0.60578713 6.23586997 0 3.68297096 0 0 Z " fill="#E0547C" transform="translate(90,47)"/>
<path d="M0 0 C3 1 3 1 4.6875 3.9375 C6 7 6 7 6 9 C4.71222656 8.66162109 4.71222656 8.66162109 3.3984375 8.31640625 C-0.80619728 7.92494025 -2.69938818 8.93633357 -6.375 10.9375 C-7.43460937 11.50339844 -8.49421875 12.06929687 -9.5859375 12.65234375 C-10.78089844 13.31943359 -10.78089844 13.31943359 -12 14 C-12 15.32 -12 16.64 -12 18 C-12.66 18 -13.32 18 -14 18 C-17 12.375 -17 12.375 -17 9 C-16.34 9 -15.68 9 -15 9 C-15 9.66 -15 10.32 -15 11 C-7.0996379 8.23909068 -7.0996379 8.23909068 0 4 C0 2.68 0 1.36 0 0 Z " fill="#D5B083" transform="translate(321,105)"/>
<path d="M0 0 C2.5 -0.3125 2.5 -0.3125 5 0 C5.66 0.66 6.32 1.32 7 2 C6.82194873 5.38297413 6.21162756 6.76272061 3.9375 9.3125 C2.9784375 10.1478125 2.9784375 10.1478125 2 11 C0.02 9.68 -1.96 8.36 -4 7 C-2.79618552 4.50638429 -1.54571278 2.31856917 0 0 Z " fill="#10050A" transform="translate(46,93)"/>
<path d="M0 0 C5.875 2.875 5.875 2.875 7 4 C7.125 6.5 7.125 6.5 7 9 C6 10 6 10 3.125 10.1875 C0 10 0 10 -3 8 C-2.45276317 4.62537285 -1.9451 2.91765 0 0 Z " fill="#090705" transform="translate(250,39)"/>
<path d="M0 0 C2.4375 0.1875 2.4375 0.1875 3.4375 1.1875 C2.8375 7.7875 2.8375 7.7875 0.4375 10.1875 C-2.85529709 9.86884222 -4.42785088 8.64234649 -6.5625 6.1875 C-3.80492424 0.27840909 -3.80492424 0.27840909 0 0 Z " fill="#070305" transform="translate(60.5625,77.8125)"/>
<path d="M0 0 C0.99 0 1.98 0 3 0 C2.34034961 6.86036401 0.7637236 13.34443923 -1 20 C-1.99 20 -2.98 20 -4 20 C-3.01 15.71 -2.02 11.42 -1 7 C-2.65 9.31 -4.3 11.62 -6 14 C-6.33 12.68 -6.66 11.36 -7 10 C-6.34 10 -5.68 10 -5 10 C-4.731875 9.278125 -4.46375 8.55625 -4.1875 7.8125 C-2.99373856 4.98517028 -1.78515449 2.49921628 0 0 Z " fill="#E89371" transform="translate(221,26)"/>
<path d="M0 0 C3.26768689 0.8599176 4.49524943 1.80537414 6.375 4.625 C6.125 8.375 6.125 8.375 5.375 11.625 C4.385 11.625 3.395 11.625 2.375 11.625 C2.375 9.315 2.375 7.005 2.375 4.625 C0.08663778 4.20513054 0.08663778 4.20513054 -2.625 4.625 C-5.33348923 7.00005218 -5.33348923 7.00005218 -7.625 9.625 C-8.615 10.12 -8.615 10.12 -9.625 10.625 C-8.66874968 5.3883911 -5.2607688 1.252564 0 0 Z " fill="#D0407A" transform="translate(60.625,74.375)"/>
<path d="M0 0 C0.66 0 1.32 0 2 0 C1.773125 0.763125 1.54625 1.52625 1.3125 2.3125 C0.74688893 4.95391289 0.74688893 4.95391289 2 6.875 C5.19321118 8.67118129 7.54806015 7.86298496 11 7 C12.79385992 5.5420814 12.79385992 5.5420814 14 4 C14.66 4 15.32 4 16 4 C14.60812281 7.36370321 13.20568604 9.21906331 10 11 C7.1875 11.5625 7.1875 11.5625 4 11 C1.4384124 9.22183557 -0.79114703 7.19578284 -3 5 C-1.125 1.125 -1.125 1.125 0 0 Z " fill="#E5AC7C" transform="translate(272,69)"/>
<path d="M0 0 C0.66 0.33 1.32 0.66 2 1 C-5.59 8.59 -13.18 16.18 -21 24 C-21.66 23.67 -22.32 23.34 -23 23 C-10.8647343 9.55008052 -10.8647343 9.55008052 -4.62109375 4.3671875 C-2.98755544 2.98950459 -1.48986173 1.53061783 0 0 Z " fill="#521A2E" transform="translate(67,41)"/>
<path d="M0 0 C3.38732168 1.69366084 4.19360326 5.52925559 5.625 8.875 C5.94984375 9.60847656 6.2746875 10.34195313 6.609375 11.09765625 C9 16.61216518 9 16.61216518 9 20 C8.34 20 7.68 20 7 20 C5.82421696 17.42047597 4.659209 14.83696062 3.5 12.25 C2.99919922 11.15558594 2.99919922 11.15558594 2.48828125 10.0390625 C2.17246094 9.33007812 1.85664062 8.62109375 1.53125 7.890625 C1.23798828 7.24125977 0.94472656 6.59189453 0.64257812 5.92285156 C0 4 0 4 0 0 Z " fill="#ED5089" transform="translate(69,65)"/>
<path d="M0 0 C3 1 3 1 4.1875 3.0625 C4.455625 3.701875 4.72375 4.34125 5 5 C8.72433382 3.7874262 12.37802806 2.49140021 16 1 C15 4 15 4 12.49609375 5.38671875 C11.48675781 5.81597656 10.47742188 6.24523438 9.4375 6.6875 C8.42558594 7.12449219 7.41367188 7.56148437 6.37109375 8.01171875 C5.58863281 8.33785156 4.80617188 8.66398437 4 9 C0 2.25 0 2.25 0 0 Z " fill="#E25D7B" transform="translate(101,54)"/>
<path d="M0 0 C0.33 0 0.66 0 1 0 C1 3.63 1 7.26 1 11 C-1.31 10.34 -3.62 9.68 -6 9 C-4.47300326 5.56425733 -2.44973747 2.84485642 0 0 Z " fill="#1B130F" transform="translate(235,34)"/>
<path d="M0 0 C0.66 0 1.32 0 2 0 C0.53967505 5.31027254 -1.98320986 9.46330032 -5 14 C-5.66 13.67 -6.32 13.34 -7 13 C-6.649375 11.9275 -6.29875 10.855 -5.9375 9.75 C-4.93284239 5.74564889 -4.93284239 5.74564889 -6 2 C-4.02 2.495 -4.02 2.495 -2 3 C-1.34 2.01 -0.68 1.02 0 0 Z " fill="#E5B582" transform="translate(297,83)"/>
<path d="M0 0 C5.95345745 2.09175532 5.95345745 2.09175532 8 5 C8.4375 7.5 8.4375 7.5 8 10 C6 11.8125 6 11.8125 4 13 C2.68 12.34 1.36 11.68 0 11 C1.32 10.67 2.64 10.34 4 10 C4.41870553 7.66928121 4.41870553 7.66928121 4 5 C1.60140956 2.66369252 1.60140956 2.66369252 -1 1 C-0.67 0.67 -0.34 0.34 0 0 Z " fill="#DC9C6F" transform="translate(252,38)"/>
<path d="M0 0 C3.70500184 1.48200074 6.67262 2.908504 10 5 C8.35 6.65 6.7 8.3 5 10 C3.35 6.7 1.7 3.4 0 0 Z " fill="#18090F" transform="translate(70,66)"/>
<path d="M0 0 C0 0.66 0 1.32 0 2 C-6.625 5 -6.625 5 -10 5 C-9.34 6.98 -8.68 8.96 -8 11 C-8.99 11 -9.98 11 -11 11 C-12.4606285 8.35261084 -13 7.10551666 -13 4 C-11.2097939 3.32942113 -9.41778511 2.6636531 -7.625 2 C-6.62726563 1.62875 -5.62953125 1.2575 -4.6015625 0.875 C-2 0 -2 0 0 0 Z " fill="#DD5F70" transform="translate(126,30)"/>
<path d="M0 0 C4.455 0.99 4.455 0.99 9 2 C9 2.33 9 2.66 9 3 C7.35 3 5.7 3 4 3 C4.33 6.63 4.66 10.26 5 14 C4.01 13.67 3.02 13.34 2 13 C1.93941406 12.22914062 1.87882813 11.45828125 1.81640625 10.6640625 C1.73261719 9.66117188 1.64882812 8.65828125 1.5625 7.625 C1.48128906 6.62726562 1.40007812 5.62953125 1.31640625 4.6015625 C1.15034374 2.02072387 1.15034374 2.02072387 0 0 Z " fill="#E7A277" transform="translate(247,48)"/>
<path d="M0 0 C0.763125 0.20625 1.52625 0.4125 2.3125 0.625 C2.3125 1.615 2.3125 2.605 2.3125 3.625 C1.44625 3.480625 0.58 3.33625 -0.3125 3.1875 C-4.79812798 3.76897029 -5.91235644 5.63866063 -8.5859375 9.09375 C-8.94945312 9.5990625 -9.31296875 10.104375 -9.6875 10.625 C-9.6875 6.57335656 -8.07392331 4.82962558 -5.6875 1.625 C-2.6875 -0.375 -2.6875 -0.375 0 0 Z " fill="#D13B80" transform="translate(49.6875,90.375)"/>
<path d="M0 0 C-1.12451727 2.9719385 -2.22293791 5.33440687 -4 8 C-7 7 -7 7 -8.1875 4.9375 C-8.5896875 3.9784375 -8.5896875 3.9784375 -9 3 C-3.375 0 -3.375 0 0 0 Z " fill="#120E0B" transform="translate(299,79)"/>
<path d="M0 0 C0.99 0 1.98 0 3 0 C3.36263859 5.8022175 2.25684543 9.63999211 0 15 C-0.33 15 -0.66 15 -1 15 C-0.67 10.05 -0.34 5.1 0 0 Z " fill="#CB7962" transform="translate(202,22)"/>
<path d="M0 0 C1.74325447 2.6148817 2.41587957 4.0053433 3.125 6.9375 C3.29257813 7.60652344 3.46015625 8.27554688 3.6328125 8.96484375 C4 11 4 11 4 15 C3.34 15 2.68 15 2 15 C1.46467177 13.44240657 0.94734622 11.87861955 0.4375 10.3125 C0.14746094 9.44238281 -0.14257812 8.57226562 -0.44140625 7.67578125 C-1.05141961 4.75368926 -0.77703633 2.85599447 0 0 Z " fill="#DA666F" transform="translate(135,33)"/>
<path d="M0 0 C3 1 3 1 4.6875 3.9375 C6 7 6 7 6 9 C3.69 8.67 1.38 8.34 -1 8 C-0.67 5.36 -0.34 2.72 0 0 Z " fill="#C9AA79" transform="translate(321,105)"/>
<path d="M0 0 C0.75 1.6875 0.75 1.6875 1 4 C-0.9375 6.75 -0.9375 6.75 -3 9 C-3.103125 8.21625 -3.20625 7.4325 -3.3125 6.625 C-3.77595022 3.66954819 -3.77595022 3.66954819 -7 2 C-2.25 0 -2.25 0 0 0 Z " fill="#D5A976" transform="translate(302,75)"/>
<path d="M0 0 C0.99 0.33 1.98 0.66 3 1 C2.34 4.3 1.68 7.6 1 11 C0.01 11.33 -0.98 11.66 -2 12 C-1 3.42857143 -1 3.42857143 0 0 Z " fill="#CB7C64" transform="translate(208,33)"/>
<path d="M0 0 C-1.45399296 3.83325416 -3.3080115 5.28279605 -7 7 C-9.8125 7.1875 -9.8125 7.1875 -12 7 C-2.9 0 -2.9 0 0 0 Z " fill="#ECC28B" transform="translate(314,100)"/>
<path d="M0 0 C0.66 0 1.32 0 2 0 C0.61043975 3.35810395 -0.82526467 5.18586552 -4 7 C-6.75 7.1875 -6.75 7.1875 -9 7 C-9 6.34 -9 5.68 -9 5 C-7.88625 4.54625 -6.7725 4.0925 -5.625 3.625 C-2.03800992 2.27534014 -2.03800992 2.27534014 0 0 Z " fill="#EDB683" transform="translate(286,73)"/>
<path d="M0 0 C1.98 0.99 1.98 0.99 4 2 C3.25 8.75 3.25 8.75 1 11 C-0.28317892 7.15046324 -0.06643637 4.05261865 0 0 Z " fill="#CE9F6F" transform="translate(287,63)"/>
<path d="M0 0 C0 0.66 0 1.32 0 2 C-1.28913487 2.67154933 -2.58140204 3.33708859 -3.875 4 C-4.59429687 4.37125 -5.31359375 4.7425 -6.0546875 5.125 C-8 6 -8 6 -10 6 C-10.33 4.35 -10.66 2.7 -11 1 C-10.34 1 -9.68 1 -9 1 C-9 1.66 -9 2.32 -9 3 C-7.88625 2.505 -6.7725 2.01 -5.625 1.5 C-2 0 -2 0 0 0 Z " fill="#E76476" transform="translate(127,40)"/>
<path d="M0 0 C0.99 0.33 1.98 0.66 3 1 C3 3 3 3 1.8125 4.3125 C1.214375 4.869375 0.61625 5.42625 0 6 C-0.886875 6.886875 -1.77375 7.77375 -2.6875 8.6875 C-3.450625 9.450625 -4.21375 10.21375 -5 11 C-3.77472971 6.94718288 -2.30119506 3.55639236 0 0 Z " fill="#E79F72" transform="translate(249,36)"/>
<path d="M0 0 C1.32 0 2.64 0 4 0 C4.66 1.32 5.32 2.64 6 4 C5.01 4.495 5.01 4.495 4 5 C3.01 6.485 3.01 6.485 2 8 C0.74335022 5.09399739 0 3.20395416 0 0 Z " fill="#EB6C74" transform="translate(132,27)"/>
<path d="M0 0 C0.66 0 1.32 0 2 0 C2.45375 0.61875 2.9075 1.2375 3.375 1.875 C5.12215047 4.15973523 6.44520125 4.80776058 9 6 C9.33 6.66 9.66 7.32 10 8 C6.05783322 7.7312159 4.43510186 7.44655191 1.625 4.5625 C0 2 0 2 0 0 Z " fill="#CCA679" transform="translate(295,100)"/>
<path d="M0 0 C-1 3 -1 3 -3.875 4.6875 C-7 6 -7 6 -10 6 C-10 5.34 -10 4.68 -10 4 C-8.71086513 3.32845067 -7.41859796 2.66291141 -6.125 2 C-5.40570313 1.62875 -4.68640625 1.2575 -3.9453125 0.875 C-2 0 -2 0 0 0 Z " fill="#E8C28D" transform="translate(320,111)"/>
<path d="M0 0 C0.33 1.32 0.66 2.64 1 4 C-1.31 5.98 -3.62 7.96 -6 10 C-6 6.41087588 -5.33563446 5.89142971 -3 3.3125 C-2.443125 2.68988281 -1.88625 2.06726562 -1.3125 1.42578125 C-0.879375 0.95527344 -0.44625 0.48476563 0 0 Z " fill="#DB8F6B" transform="translate(233,33)"/>
<path d="M0 0 C4.75 1.875 4.75 1.875 7 3 C6.67 3.99 6.34 4.98 6 6 C4.02 4.68 2.04 3.36 0 2 C-0.33 2.66 -0.66 3.32 -1 4 C-0.67 2.68 -0.34 1.36 0 0 Z " fill="#DE4A7E" transform="translate(69,63)"/>
<path d="M0 0 C1 3 1 3 0 5.1875 C-2 7 -2 7 -5.6875 7.25 C-6.780625 7.1675 -7.87375 7.085 -9 7 C-9 6.67 -9 6.34 -9 6 C-8.071875 5.7525 -7.14375 5.505 -6.1875 5.25 C-2.83541675 3.93545755 -1.8122197 3.02036616 0 0 Z " fill="#F39079" transform="translate(202,36)"/>
<path d="M0 0 C4.875 1.875 4.875 1.875 6 3 C6.04080783 4.99958364 6.04254356 7.00045254 6 9 C5.773125 8.4225 5.54625 7.845 5.3125 7.25 C3.66961977 4.4336339 1.60466773 2.91922886 -1 1 C-0.67 0.67 -0.34 0.34 0 0 Z " fill="#C58961" transform="translate(252,38)"/>
<path d="M0 0 C0.99 0 1.98 0 3 0 C3.66 2.31 4.32 4.62 5 7 C4.01 7 3.02 7 2 7 C0.5393715 4.35261084 0 3.10551666 0 0 Z " fill="#D45A6D" transform="translate(113,34)"/>
<path d="M0 0 C0.66 0.66 1.32 1.32 2 2 C-0.64 2.99 -3.28 3.98 -6 5 C-6.66 4.34 -7.32 3.68 -8 3 C-5.36 2.01 -2.72 1.02 0 0 Z " fill="#CC5D6B" transform="translate(132,48)"/>
<path d="M0 0 C0 0.66 0 1.32 0 2 C-3.465 3.485 -3.465 3.485 -7 5 C-7 4.01 -7 3.02 -7 2 C-4.35261084 0.5393715 -3.10551666 0 0 0 Z " fill="#CF536C" transform="translate(108,38)"/>
<path d="M0 0 C0.66 0 1.32 0 2 0 C2.66 2.31 3.32 4.62 4 7 C3.01 7 2.02 7 1 7 C0.67 4.69 0.34 2.38 0 0 Z " fill="#D85174" transform="translate(90,47)"/>
<path d="M0 0 C0.99 0 1.98 0 3 0 C3 0.66 3 1.32 3 2 C2.34 2 1.68 2 1 2 C0.34 3.32 -0.32 4.64 -1 6 C-1.66 5.34 -2.32 4.68 -3 4 C-1.6875 2 -1.6875 2 0 0 Z " fill="#C66E5F" transform="translate(182,20)"/>
</svg>
